# xmcd
#
# Track frame offsets: 
#        179
#        14341
#        28512
#        42504
#        52467
#        65937
#        74078
#        87998
#        99914
#        110066
#        133413
#        143446
#
# Disc length: 2038 seconds
#
# Revision: 3
# Processed by: cddbd v1.5.2PL0 Copyright (c) Steve Scherf et al.
# Submitted via: ExactAudioCopy v1.0b3
#
DISCID=bc07f40c
DTITLE=Cash, Johnny - Orange Blossom Special [888837658621]
DYEAR=1965
DGENRE=Country
TTITLE0=Orange Blossom Special
TTITLE1=The Long Black Veil
TTITLE2=It Ain't Me Babe
TTITLE3=The Wall
TTITLE4=Don't Think Twice, It's All Right
TTITLE5=You Wild Colorado
TTITLE6=Mama, You Been On My Mind
TTITLE7=When It's Springtime In Alaska (It's Forty Below)
TTITLE8=All Of God's Children Ain't Free
TTITLE9=Danny Boy
TTITLE10=Wildwood Flower
TTITLE11=Amen
EXTD=
EXTT0=
EXTT1=
EXTT2=
EXTT3=
EXTT4=
EXTT5=
EXTT6=
EXTT7=
EXTT8=
EXTT9=
EXTT10=
EXTT11=
PLAYORDER=
